<svg xmlns="http://www.w3.org/2000/svg" xmlns:xlink="http://www.w3.org/1999/xlink" id="Layer_1" x="0px" y="0px"
    viewBox="0 0 500 500" style="enable-background:new 0 0 500 500;" xml:space="preserve">
    <g>
        <path fill="white"
            d="M959.3-34.5c4.4,2.2,9.3,3.9,13.3,6.8c6.9,5,10.6,12.2,11.3,20.8c0.6,6.6,1.4,7.3,8.2,7.3c3.6,0,7.2-0.1,10.7,0  c13.6,0.4,23.1,7.1,28.3,19.5c1.2,3,2.7,3.8,5.7,3.8c22.5-0.1,44.9-0.1,67.4,0c18,0,27,9.1,27,27c0,18.1,0.1,36.1-0.1,54.2  c0,2.6-1.4,5.9-3.3,7.5c-1.5,1.3-5.3,1.5-7,0.5c-2-1.2-3.9-4.2-4-6.5c-0.5-8.3-0.2-16.6-0.2-24.9c0-10.9,0-21.8,0-32.7  c0-7-3.1-10.1-10.1-10.4c-3.2-0.1-6.4,0-10.2,0c0,2.5,0,4.4,0,6.3c0,33.9,0,67.7,0,101.6c0,1.6,0.1,3.3-0.1,4.9  c-0.5,4-3,6.2-6.8,6.4c-3.6,0.2-6.3-1.7-7.2-5.3c-0.5-1.8-0.5-3.9-0.5-5.8c0-34,0-68,0-102c0-1.8,0-3.5,0-5.6  c-16.1,0-31.8,0-47.8,0c-0.3,2.9-0.5,5.8-1.1,8.6c-1.7,7.9-8,13.4-16,14.2c-2.1,0.2-4.2,0.2-6.3,0.2c-43,0-85.9,0-128.9,0  c-18.6,0-23.2-4.1-25.3-22.9c-15.8,0-31.6,0-48.1,0c0,1.7,0,3.5,0,5.2c0,120,0,239.9,0,359.9c0,7.2,0.3,7.5,7.4,7.5  c31.9,0,63.8-0.1,95.7,0.1c3.6,0,5.7-0.9,7.1-4.3c13.5-32.7,34-60.6,56.3-87.8c53.4-65.4,105.8-131.6,158.6-197.5  c8-10,18.3-14.5,31-11.6c11.6,2.6,19.2,10.1,22.2,21.6c2.7,10.3-0.1,19.5-6.8,27.8c-21.6,26.7-43,53.6-64.4,80.3  c-41.6,51.9-83.2,103.9-125,155.7c-4.5,5.6-10.6,10-16.3,15.3c1.4,0.2,2.5,0.4,3.7,0.4c32.6,0,65.1,0,97.7,0c6.1,0,6.5-0.4,6.5-6.8  c0-33.7,0-67.4,0-101.1c0-1.3-0.1-2.6,0-3.9c0.3-5,3.1-8,7.4-7.9c4.3,0,7.1,3.1,7.1,8.1c0.1,9.6,0,19.2,0,28.8  c0,25.4,0,50.8,0,76.2c0,14.8-6.6,21.3-21.5,21.3c-38.2,0-76.5,0.1-114.7-0.1c-4,0-7.2,1-10.1,3.7c-3.1,2.8-6.4,5.5-9.9,7.9  c-9.7,6.8-22.4,3.1-26.5-8c-1.2-3.2-2.9-3.6-5.8-3.5c-30.9,0.1-61.8,0-92.8,0c-14.7,0-21.5-6.7-21.5-21.5c0-119.8,0-239.6,0-359.4  c0-2.1,0-4.2,0-6c-0.8-0.4-1-0.7-1.3-0.7c-16.4-0.9-19,0.2-18.9,17.6c0.2,127.1,0.1,254.2,0.1,381.3c0,2.6-0.4,5.7,0.8,7.6  c1.6,2.4,4.6,4.2,7.2,5.7c1.2,0.7,3.2,0.2,4.8,0.2c105.8,0,211.6,0,317.4,0c10.5,0,13-2.4,13-12.8c0-59.7,0-119.5,0-179.2  c0-1.9-0.4-4.5,0.6-5.7c1.9-2.1,4.5-4.3,7.1-4.7c3.5-0.6,6,2.2,6.7,5.7c0.3,1.6,0.2,3.2,0.2,4.9c0,60.1,0,120.1,0,180.2  c0,16.9-9.4,26.3-26.3,26.3c-106.6,0-213.2,0-319.8,0c-17,0-26.4-9.2-26.4-26.1c0-129.9,0-259.8,0-389.6c0-16.7,9.3-26,26-26  c22.6-0.1,45.2-0.1,67.9,0c3.3,0,5-0.8,6.4-4.2C864,7.5,873.3,1,886.4,0.5c4.5-0.2,9.1,0,13.7-0.1c2.9,0,5.3-1.1,5.5-4.3  c0.9-16.5,10.1-26.1,25.4-30.5C940.4-34.5,949.9-34.5,959.3-34.5z M981.2,383.4c52.4-65.4,104.5-130.4,156.8-195.6  c-8.2-6.5-15.9-12.7-23.8-19c-52.4,65.4-104.5,130.4-156.8,195.6C965.6,371,973.4,377.1,981.2,383.4z M945.2,47  c21.8,0,43.6,0,65.4,0c7.8,0,8.1-0.4,8.2-8.4c0-2.4,0.1-4.9,0-7.3c-0.4-9.7-6.8-16-16.5-16.2c-3.4-0.1-6.8,0-10.2,0  c-14.4,0-21-6-22.6-20.5c-0.9-8.4-7.1-14.2-15.6-14.4c-5.9-0.1-11.7-0.1-17.6,0c-8.8,0.2-15.2,6.4-15.8,15.4  c-0.9,12.3-8.2,19.3-20.5,19.5c-4.4,0.1-8.8-0.1-13.2,0.1c-8.6,0.3-15,6.6-15.3,15.2c-0.1,3.2-0.1,6.5-0.1,9.8  c0,6.3,0.6,6.9,7.1,6.9C900.6,47,922.9,47,945.2,47z M1147.2,176.4c7.7-9.7,15.4-18.9,22.7-28.5c4.6-6.1,3.3-14.9-2.2-19.9  c-5.6-5.1-14.8-5.8-19.9-0.2c-8.6,9.4-16.3,19.6-24.5,29.6C1131.6,163.9,1139.3,170.1,1147.2,176.4z M949.6,376.9  c-7.6,15.3-14.9,29.9-22.2,44.6c-0.1,0.3-0.4,0.7-0.3,0.9c0.3,1.2,0.5,2.6,1.2,3.3c0.5,0.5,2.3,0.4,3-0.1c2.2-1.4,4.1-3.1,6.2-4.8  c11-8.9,21.9-17.8,33.2-26.9C963.6,388.1,956.9,382.8,949.6,376.9z">
        </path>
        <path fill="white"
            d="M990.5,118.1c-16.7,0-33.5,0-50.2,0c-6,0-9.4-3.7-8.3-8.7c1-4.4,4.3-5.9,8.4-5.9c6.8-0.1,13.7,0,20.5,0c25.5,0,51,0,76.6,0  c1.3,0,2.6,0,3.9,0c5.2,0.2,8.6,3.2,8.5,7.4c0,4.3-3.3,7.2-8.6,7.2C1024.3,118.1,1007.4,118.1,990.5,118.1z">
        </path>
        <path fill="white"
            d="M991,136.2c16.7,0,33.5,0,50.2,0c5.3,0,8.6,2.9,8.6,7.2c0,4.3-3.3,7.2-8.6,7.4c-1.3,0.1-2.6,0-3.9,0c-27.8,0-55.6,0-83.4,0  c-4.4,0-8.8,0.1-13.2,0c-5.8-0.1-8.9-2.7-8.9-7.4c0-4.7,3-7.2,9-7.2C957.5,136.1,974.3,136.2,991,136.2z">
        </path>
        <path fill="white"
            d="M990.5,222.9c-15.9,0-31.9,0-47.8,0c-1.9,0-4,0-5.8-0.5c-3.6-1-5.3-3.6-5.1-7.3c0.2-3.5,2.1-5.8,5.5-6.5  c1.6-0.3,3.2-0.3,4.9-0.3c32.3,0,64.7,0,97,0c1.6,0,3.3,0,4.9,0.3c3.7,0.8,6.1,3.5,5.4,6.9c-0.5,2.5-2.9,5-5.1,6.8  c-1.3,1-3.8,0.6-5.7,0.6C1022.7,222.9,1006.6,222.9,990.5,222.9z">
        </path>
        <path fill="white"
            d="M867.2,348.6c5.3-7.5,10.4-14.8,15.5-22.1c2.5-3.6,4.9-7.3,7.5-10.8c2.8-3.7,6.8-4.5,10.2-2.2c3.6,2.4,4.4,6.7,1.6,10.7  c-7.8,11.4-15.6,22.7-23.7,33.9c-4.9,6.8-13.3,7.8-19.7,2.5c-5.4-4.5-10.5-9.2-15.7-13.9c-3.6-3.3-4-7.6-1.2-10.8  c2.8-3.2,7.1-3.3,10.8-0.1C857.5,339.9,862.2,344.1,867.2,348.6z">
        </path>
        <path fill="white"
            d="M867.3,243c7.1-10.1,14.1-20.1,21-30.1c4.4-6.3,8.1-7.8,12.2-5.1c4.3,2.9,4.2,7.1-0.2,13.5c-6.9,9.8-13.7,19.7-20.7,29.5  c-6.2,8.8-14.4,9.8-22.3,2.8c-4.6-4.1-9.3-8.1-13.8-12.3c-3.9-3.5-4.4-7.9-1.6-11.1c2.9-3.2,7.3-3.3,11.2,0.1  C857.7,234.5,862.3,238.7,867.3,243z">
        </path>
        <path fill="white"
            d="M867.2,136.1c7-10,13.7-19.6,20.4-29.2c0.8-1.2,1.6-2.4,2.5-3.6c3-3.9,7.2-4.7,10.6-2.1c3.3,2.4,4,6.5,1.4,10.4  c-4.2,6.2-8.5,12.3-12.8,18.4c-3.5,5.1-7,10.2-10.6,15.2c-5.3,7.1-13.7,8.2-20.4,2.5c-5.2-4.4-10.3-9-15.3-13.6  c-3.6-3.3-3.9-7.7-1-10.8c3-3.2,7-3.3,10.8,0C857.5,127.3,862.1,131.5,867.2,136.1z">
        </path>
        <path fill="white"
            d="M965.1,240.8c8.1,0,16.2-0.1,24.4,0c5.3,0,8.6,2.8,8.6,7.2c0,4.3-3.3,7.4-8.5,7.4c-16.4,0.1-32.8,0.1-49.2,0  c-5.4,0-8.5-2.8-8.5-7.3c0-4.5,3-7.3,8.4-7.3C948.5,240.7,956.8,240.8,965.1,240.8z">
        </path>
    </g>
    <g>
        <path fill="white"
            d="M925.7,556.1c-3.8-5.4-6.9-10-10.1-14.4c-4.5-6.2-5.8-12.7-2.1-19.6c3.6-6.7,9.6-9.2,17-9.1c19.5,0.1,39,0.1,58.5,0  c7.7,0,13.8,2.5,17.3,9.5c3.3,6.7,2.2,13.2-2.3,19.2c-3.2,4.4-6.3,9-10.1,14.4c2.7,0,4.4,0,6.1,0c42.9,0,85.8,0.4,128.6-0.2  c19.9-0.3,31.4,14.2,31.4,31.5c-0.4,131.2-0.2,262.5-0.2,393.7c0,14.7-7.7,25.6-20.6,28.9c-3.4,0.9-7.1,1.1-10.6,1.1  c-109.1,0.1-218.3,0.1-327.4,0c-20.3,0-31.2-11.1-31.2-31.4c0-131.2,0-262.5,0-393.7c0-14.9,7.8-25.7,21.1-29  c3.3-0.8,6.8-0.8,10.1-0.8c39.3-0.1,78.6,0,117.9,0C920.8,556.1,922.6,556.1,925.7,556.1z M818.2,604.3c0,119.7,0,238.9,0,358.2  c82.1,0,163.8,0,246,0c0-12.7,0-25,0-37.3c0-7.3,2.6-9.9,10-10c10.7-0.1,21.4,0,32.2,0c1.7,0,3.4-0.2,5.1-0.3  c0-103.9,0-207.2,0-310.6c-23.5,0-46.6,0-69.7,0c-1.8,12.1-2.2,12.4-14.6,12.4c-31,0-62,0-93,0c-15.6,0-31.2,0-46.8,0  c-6.1,0-8.8-2.8-9.2-8.9c-0.1-1.1-0.1-2.2-0.2-3.6C858.1,604.3,838.3,604.3,818.2,604.3z M878,571.6c-1.9,0-3.4,0-4.8,0  c-24.2,0-48.4,0-72.6,0c-10.9,0-15.1,4.2-15.1,15c0,131.2,0,262.5,0,393.7c0,10.7,4.3,15.1,15.1,15.1c109.5,0,219,0,328.4,0  c10.8,0,15.1-4.4,15.1-15.1c0-131.2,0-262.5,0-393.7c0-10.8-4.2-15-15.1-15c-27.6,0-55.2,0-82.8,0c-1.5,0-3.1,0.2-4.6,0.3  c0,5.8,0,11,0,16.5c2.2,0,4,0,5.8,0c23.1,0,46.1,0,69.2,0c8.3,0,10.8,2.5,10.8,10.8c0,107,0,214.1,0.1,321.1  c0,4.2-1.4,7.4-4.3,10.3c-14.7,14.5-29.3,29.1-43.8,43.8c-2.8,2.9-5.9,4.1-9.9,4.1c-85.6-0.1-171.2-0.1-256.8-0.1  c-7.9,0-10.4-2.5-10.4-10.6c0-123,0-245.9,0-368.9c0-8,2.6-10.6,10.4-10.6c20,0,40,0,59.9,0c1.7,0,3.4,0,5.3,0  C878,582.6,878,577.5,878,571.6z M894,600.9c43.9,0,87.5,0,131.4,0c0-9.7,0-19.2,0-29.3c-2,0-3.7,0-5.5,0c-13.1,0-26.3,0-39.4,0  c-3.7,0-6.8-0.9-8.6-4.4c-1.8-3.5-0.6-6.5,1.5-9.5c5.7-7.9,11.3-15.9,16.8-23.9c0.9-1.3,1.5-2.9,2.4-4.7c-22.3,0-43.9,0-66.5,0  c1.4,2.2,2.2,3.6,3.1,4.9c5.2,7.4,10.4,14.9,15.7,22.2c2.5,3.4,4.7,6.8,2.4,11.1c-2.3,4.3-6.5,4.2-10.6,4.2c-11.2,0-22.4,0-33.6,0  c-3,0-6.1,0-9.3,0C894,581.6,894,591,894,600.9z M1080.1,931.1c0,6.9,0,13.3,0,17.8c5.7-5.7,12-12.1,17.8-17.8  C1092.9,931.1,1086.6,931.1,1080.1,931.1z">
        </path>
        <path fill="white"
            d="M1010.1,666.6c-19.5,0-39,0-58.5,0c-6.3,0-9.8-2.7-10-7.5c-0.2-4.9,3.7-8.1,10-8.1c39,0,77.9,0,116.9,0  c7.4,0,11.6,4.7,9.4,10.5c-1.6,4.2-4.9,5.2-9,5.1C1049.4,666.5,1029.8,666.6,1010.1,666.6z">
        </path>
        <path fill="white"
            d="M1010.7,806.7c19.3,0,38.6,0,58,0c6.3,0,9.8,2.7,10,7.5c0.2,4.9-3.7,8.1-10,8.1c-39,0-77.9,0-116.9,0  c-3.8,0-7.6-0.6-8.9-4.5c-0.8-2.3-0.8-6,0.6-7.6c1.7-2,5.2-3.4,7.9-3.4C971,806.6,990.9,806.7,1010.7,806.7z">
        </path>
        <path fill="white"
            d="M1010.7,884.5c19.3,0,38.6-0.1,58,0.1c2.6,0,5.7,0.7,7.6,2.3c4.4,3.6,2.6,10.7-2.9,12.5c-2,0.6-4.2,0.7-6.2,0.7  c-38,0-76,0-114,0c-0.8,0-1.6,0-2.4,0c-5.6-0.3-9.2-3.6-9-8.1c0.2-4.5,3.5-7.4,9.1-7.4C970.7,884.5,990.7,884.5,1010.7,884.5z">
        </path>
        <path fill="white"
            d="M1010.3,744.4c-19.8,0-39.6,0-59.4,0c-7,0-11.4-5.9-8.1-11.1c1.4-2.2,4.8-4.3,7.4-4.3c39.9-0.3,79.9-0.2,119.8-0.2  c5.2,0,8.7,3.4,8.7,7.9c-0.1,4.5-3.6,7.6-8.9,7.6C1049.9,744.5,1030.1,744.4,1010.3,744.4z">
        </path>
        <path fill="white"
            d="M875.5,681.8c8.9-8.8,16.8-16.4,24.7-24.1c1.3-1.2,2.5-2.6,3.8-3.7c3.4-2.8,7.6-2.7,10.6,0.2c3,2.9,3.5,7.3,0.5,10.5  c-10.9,11.3-21.9,22.5-33.2,33.5c-3,2.9-7,2.7-10.2-0.3c-6.2-5.7-12.2-11.6-18.1-17.6c-3.3-3.4-3.2-7.8-0.2-10.9  c2.9-3,7.6-3.4,10.9-0.1C868.2,673.1,871.8,677.6,875.5,681.8z">
        </path>
        <path fill="white"
            d="M875.7,759.3c9-8.8,16.8-16.5,24.7-24.2c1.2-1.1,2.2-2.4,3.5-3.4c3.3-2.8,7.7-2.7,10.6,0.1c3,2.9,3.6,7.3,0.5,10.5  c-10.9,11.3-22,22.5-33.2,33.5c-3,2.9-7,2.7-10.1-0.2c-6.2-5.7-12.2-11.6-18.1-17.6c-3.3-3.4-3.2-7.8-0.2-10.9  c3.1-3.3,7.6-3.5,11.2,0.1C868.5,751,872,755.3,875.7,759.3z">
        </path>
        <path fill="white"
            d="M875.6,837.3c8.3-8.1,15.6-15.2,22.8-22.4c1.9-1.8,3.6-3.8,5.6-5.4c3.2-2.8,7.7-2.6,10.6,0.2c3,2.9,3.2,7.1,0.4,10.5  c-2,2.4-4.3,4.4-6.4,6.6c-8.1,8.2-16.2,16.4-24.3,24.5c-5.5,5.6-8.9,5.6-14.4,0.3c-5.1-4.9-10.3-9.9-15.3-14.9  c-4.2-4.1-4.5-8.5-1.1-12c3.4-3.5,7.9-3.3,11.9,0.8C868.9,829.4,872.2,833.4,875.6,837.3z">
        </path>
        <path fill="white"
            d="M875.4,915c9-8.7,16.8-16.3,24.6-23.9c1.3-1.2,2.5-2.6,3.8-3.7c3.4-2.8,7.7-2.8,10.6,0c3.2,3,3.4,7.4,0.3,10.9  c-3.4,3.7-7,7.2-10.6,10.8c-6.9,6.9-13.7,13.9-20.6,20.8c-4.7,4.6-8.4,4.7-13,0.3c-5.5-5.3-11-10.6-16.4-16  c-3.9-3.9-4-8.3-0.7-11.6c3.2-3.2,7.8-3.1,11.6,0.7C868.8,907,872.1,911.2,875.4,915z">
        </path>
        <path fill="white"
            d="M980,840.8c9.6,0,19.2,0,28.7,0c5.8,0,9.2,2.9,9.1,7.7c0,4.8-3.4,7.8-9.2,7.8c-19.2,0.1-38.3,0.1-57.5,0  c-5.9,0-9.7-3.4-9.5-8.1c0.2-4.6,3.7-7.4,9.5-7.4C960.8,840.8,970.4,840.8,980,840.8z">
        </path>
        <path fill="white"
            d="M979.9,918.6c9.6,0,19.1,0,28.7,0c5.9,0,9.2,2.9,9.2,7.7c0,4.8-3.4,7.8-9.2,7.9c-19.1,0.1-38.3,0.1-57.4,0  c-5.9,0-9.7-3.4-9.5-8.1c0.2-4.7,3.6-7.4,9.5-7.5C960.8,918.6,970.3,918.6,979.9,918.6z">
        </path>
        <path fill="white"
            d="M979.4,700.7c-9.6,0-19.1,0-28.7,0c-5.4,0-8.9-3-9-7.5c-0.1-4.6,3.5-8,9.1-8.1c19.3-0.1,38.6-0.1,57.9,0  c5.8,0,9.1,3.1,9.1,7.9c0,4.8-3.4,7.6-9.2,7.7C998.9,700.7,989.1,700.7,979.4,700.7z">
        </path>
        <path fill="white"
            d="M979.8,778.6c-9.6,0-19.2,0-28.7,0c-5.7,0-9.3-3-9.4-7.6c-0.1-4.8,3.6-7.9,9.6-7.9c19,0,38,0,57,0c6.1,0,9.6,3,9.5,7.9  c-0.1,4.9-3.5,7.7-9.7,7.7C998.7,778.6,989.2,778.6,979.8,778.6z">
        </path>
    </g>
    <g>
        <path fill="white"
            d="M258.1,13.3c5.6,2.9,11.9,5,16.6,9c4,3.3,6.8,8.5,8.9,13.4c1.4,3.3,3,3.9,6.1,3.9c26.9-0.1,53.8,0,80.7,0  c13.1,0,26.3,0,39.4,0c5.6,0,8.7,2.5,8.8,6.9c0.1,4.6-3.1,7.2-8.9,7.2c-7.9,0-15.9,0-24,0c-0.5,7-0.4,13.1,2.9,19.4  C410,113,431,153.2,452.2,193.2c1.1,2,3.1,3.8,5,4.9c5.1,2.8,7.4,8.2,4.5,13.5c-5.5,10.1-11.2,20.2-17.4,30c-1.4,2.2-4.9,4-7.7,4.4  c-5.5,0.7-11.2,0.3-16.9,0.2c-4.4-0.1-7.2-3-7.2-7c0-3.8,2.7-6.5,6.8-7c0.6-0.1,1.3-0.2,1.9,0c9.9,2.2,15.8-2.2,19.1-11.3  c1.2-3.1,3.3-5.9,5.2-9.3c-45,0-89.3,0-134.6,0c4,6.9,7.6,13.3,11.6,19.6c0.6,0.9,2.8,0.9,4.3,0.9c18.9,0.1,37.8,0,56.8,0.1  c1.8,0,3.8,0,5.5,0.6c3.4,1.2,5.4,4.1,4.2,7.3c-0.9,2.4-3.6,4.1-5.6,5.9c-0.5,0.5-1.8,0.2-2.8,0.2c-21.1,0-42.2,0-63.3,0  c-4.7,0-8-1.9-10.3-6c-5.2-9.1-10.5-18.1-15.7-27.2c-3.8-6.7-1.9-11.9,5-15.3c1.4-0.7,2.7-2.1,3.4-3.4c22-41.6,44-83.1,65.5-124.9  c2.2-4.2,1.7-9.9,2.5-15.3c-2.6-0.1-4.1-0.3-5.6-0.3c-25.6,0-51.3,0-76.9-0.1c-3.3,0-4.8,0.8-5.9,4.2c-3.3,9.9-10.2,16.8-20.1,20.1  c-3.4,1.2-4.2,2.8-4.1,6c0.2,6.2,0.1,12.4,0.1,19c3,0.1,5.5,0.2,8,0.4c5.8,0.5,10.1,4.3,10.5,10.1c0.5,6.8,0.4,13.8,0.1,20.6  c-0.1,4-2.7,6.2-6.8,6.4c-3.9,0.1-6.8-2.4-7-6.7c-0.2-5.3-0.1-10.6-0.1-16.2c-8,0-15.4,0-23.3,0c0,54.1,0,108,0,162.2  c7.7,0,15.1,0,23.2,0c0-2,0-3.8,0-5.7c0-34.4,0-68.8,0-103.2c0-1.9,0-3.8,0.2-5.6c0.5-3.6,2.8-5.6,6.4-5.7c3.8-0.2,6.3,1.7,7.1,5.4  c0.4,1.8,0.3,3.7,0.3,5.6c0,34.4,0,68.8,0,103.2c0,1.9,0,3.7,0,5.9c9.6,1.2,17.1,5.3,21.9,13.7c4.8,8.3,2.4,17.4,3.4,26.9  c3.7,0,7.4,0,11.1,0c14.8,0.1,24.2,9.6,24.4,24.4c0.1,5.6,0,11.2,0,17.5c2.4,0,4.4,0,6.4,0c43.6,0,87.3,0,130.9,0  c7.2,0,10.6,2.2,10.6,7c0,4.7-3.5,7.1-10.6,7.1c-3.4,0-6.8,0-10.5,0c0,28,0,55.5,0,83.7c4.3,0,8.6-0.1,12.9,0  c5.1,0.1,8.2,2.9,8.2,7.1c-0.1,4-3.1,6.7-7.9,7c-1.6,0.1-3.1,0-4.7,0c-96.3,0-192.7,0-289,0c-2,0-4,0-6.8,0c0,3.4,0.1,6.5,0,9.5  c-0.3,9-8.2,13.2-15.8,8.3c-4.7-3.1-9.3-6.3-13.8-9.6c-2.1-1.6-3.6-1.5-5.8,0.1c-4.4,3.3-9,6.2-13.5,9.4c-3.5,2.4-7.1,3.3-11,1.2  c-3.8-2.1-5.4-5.4-5.3-9.7c0.1-2.8,0-5.6,0-9c-2.4,0-4.3,0-6.3,0c-13-0.1-26,0.6-38.9-0.6c-29.8-2.8-51.6-28.5-50.2-58.1  c1.4-29.5,25.8-52.9,55.7-53.1c28.9-0.2,57.9,0,86.8,0c1.5,0,3.1,0,5.4,0c0-5.5,0.3-10.6-0.1-15.6c-1.2-16.7,11.7-27.6,26.4-26.3  c2.9,0.3,5.9,0,9.4,0c0-3.8,0.2-7.2,0-10.6c-1.2-15.1,7.3-27.5,25-30.1c0-1.9,0-3.9,0-5.8c0-51.5,0-102.9,0-154.4  c0-2.3,0-4.7,0.4-7c0.9-4.8,4.7-8.4,9.6-8.9c2.6-0.3,5.3-0.3,8.6-0.5c0-7.6,0.1-15-0.1-22.4c0-0.7-1.6-1.7-2.7-2.1  c-11-3.7-18.2-11.1-22-22c-0.4-1.1-2-2.6-3-2.6c-27.7-0.1-55.4,0-83,0.1c-0.1,0-0.2,0.1-0.7,0.4c-0.4,6-0.6,11.8,2.6,17.8  c21.5,40.2,42.6,80.7,63.9,121c1.1,2,3,3.8,5,4.9c5.2,2.9,7.6,8.2,4.7,13.4c-5.5,10.1-11.2,20.2-17.5,29.9  c-1.6,2.4-5.6,4.5-8.5,4.5c-38.3,0.3-76.6,0.2-115,0.2c-4.1,0-7.2-1.8-9.3-5.3c-5.5-9.5-11-18.9-16.4-28.4  c-3.4-6.1-1.3-11.5,5.1-14.7c1.4-0.7,2.8-1.9,3.5-3.3c22-41.7,44.1-83.4,65.8-125.3c2.2-4.2,1.5-9.9,2.2-15.5c-8.1,0-15.1,0-22.1,0  c-1.6,0-3.1,0.1-4.7,0c-4.4-0.3-7.1-3.2-7.1-7.2c0.1-3.8,2.8-6.5,6.9-6.8c1.4-0.1,2.8,0,4.2,0c39.3,0,78.5,0,117.8,0  c3.1,0,4.8-0.5,6-4c3.6-10.8,11.4-17.7,22.2-21.1c1.2-0.4,2.3-0.8,3.4-1.2C250.6,13.3,254.3,13.3,258.1,13.3z M451.4,407.4  c-2.4,0-4.3,0-6.1,0c-47.4,0-94.8,0-142.2,0c-1.6,0-3.2,0.2-4.7-0.2c-3.8-0.9-6-3.3-5.8-7.4c0.2-3.8,2.5-6,6.2-6.4  c1.5-0.2,3.1-0.1,4.7-0.1c47.4,0,94.8,0,142.2,0c1.8,0,3.6,0,5.6,0c0-6,0-11.4,0-17.2c-2.3,0-4.3,0-6.3,0c-61.3,0-122.6,0-183.9,0  c-2.2,0-4.4,0-6.5-0.4c-3.5-0.7-5.3-3.3-5.2-6.8c0.1-3.5,1.9-5.9,5.5-6.6c1.7-0.3,3.4-0.3,5.1-0.3c19.7,0,39.4,0,59.1,0  c1.8,0,3.6,0,5.9,0c0-5.8,0-10.9,0-16.1c0-8.8-2.9-11.7-11.9-11.7c-40.3,0-80.7,0-121,0c-1.4,0-2.8-0.1-4.2,0.1  c-4.1,0.7-7.3,3-7.5,7.2c-0.4,6.6-0.1,13.3-0.1,20.5c2.3,0,4.1,0,6,0c12.2,0,24.4-0.1,36.6,0.1c4.7,0,7.4,2.6,7.5,6.6  c0.2,4.2-2.6,6.9-7.4,7.3c-1.6,0.1-3.1,0.1-4.7,0.1c-35.5,0-71,0-106.5,0c-10.4,0-18.5,5.5-19,14.9c-0.8,17.9-0.6,35.9,0,53.9  c0.3,8.7,11.1,17,20.4,14c0-17.1,0-34.2,0-51.4c-1.6-0.1-2.9-0.1-4-0.4c-3.8-1-6-3.4-5.7-7.4c0.3-3.7,2.6-5.9,6.3-6.4  c1.2-0.2,2.5-0.1,3.7-0.1c40.5,0,81,0,121.5,0c1.6,0,3.4-0.4,4.6,0.3c2,1.2,4.5,2.9,5,4.9c0.6,2-0.3,5.2-1.8,6.6  c-1.5,1.5-4.5,2.1-6.8,2.2c-17.4,0.2-34.7,0.1-52.1,0.1c-1.6,0-3.3,0.1-4.9,0.2c0,17.6,0,34.7,0,51.8c91,0,181.6,0,272.3,0  c0-5.8,0-11.2,0-17.1c-2.1,0-4,0-5.8,0c-47.4,0-94.8,0-142.2,0c-1.6,0-3.1,0.1-4.7-0.1c-3.6-0.5-5.6-2.6-6-6.1  c-0.3-3.5,1.2-6.2,4.6-7.2c1.9-0.6,4-0.6,6-0.6c47.5,0,95.1,0,142.6,0c1.8,0,3.6,0,5.4,0C451.4,421,451.4,414.5,451.4,407.4z   M82.6,376.5c-19.6-2.5-36.4,5.1-45,20.8c-8.6,15.7-7.5,31.3,3,45.8c9.4,13,27.8,19.7,42.1,16C76.2,442.1,76.1,396.6,82.6,376.5z   M371.1,99c-0.3-0.1-0.5-0.2-0.8-0.3c-17.2,32.6-34.3,65.3-51.7,98.2c18.1,0,35.2,0,52.5,0C371.1,164.1,371.1,131.5,371.1,99z   M134.7,98.8c-0.3,0.1-0.5,0.1-0.8,0.2c0,32.7,0,65.3,0,97.9c17.5,0,34.6,0,52.4,0C169,163.9,151.9,131.3,134.7,98.8z M119.4,99.4  c-0.3-0.1-0.7-0.2-1-0.3c-17.1,32.5-34.2,65-51.5,97.8c17.9,0,35.1,0,52.5,0C119.4,164.1,119.4,131.8,119.4,99.4z M385.7,197  c17.5,0,34.6,0,52.4,0c-17.4-33-34.5-65.5-51.6-97.9c-0.3,0.1-0.6,0.2-0.8,0.3C385.7,131.7,385.7,164.1,385.7,197z M193.9,211.6  c-45.2,0-89.6,0-134.6,0c3.9,6.7,7.3,12.9,11.1,19c0.6,1,2.6,1.4,4,1.4c34.8,0.1,69.7,0.1,104.5,0c1.3,0,3.2-0.3,3.7-1.1  C186.5,224.7,190,218.4,193.9,211.6z M127.8,475.6c3.7-2.6,6.9-4.7,10.1-6.9c8.1-5.6,8.2-5.6,16.5,0.1c3.1,2.2,6.3,4.3,10,6.8  c0-23.1,0-45.4,0-67.8c-12.3,0-24.4,0-36.5,0C127.8,430.3,127.8,452.5,127.8,475.6z M215.8,319.9c24.8,0,48.9,0,73.2,0  c0.1-1.2,0.2-2.1,0.2-3c0-3.9,0.1-7.8-0.1-11.7c-0.3-6.3-4.8-11-11.1-11.1c-17-0.2-34.1-0.2-51.1,0c-5.9,0.1-10.6,4.5-11,10.2  C215.6,309.3,215.8,314.4,215.8,319.9z M271.6,46.5c-0.1-10.7-8.8-19.3-19.5-19.1c-10.5,0.2-18.9,8.8-18.8,19.3  c0.1,10.7,8.8,19.3,19.5,19.1C263.3,65.7,271.7,57,271.6,46.5z">
        </path>
    </g>
</svg>