<svg xmlns="http://www.w3.org/2000/svg" xmlns:xlink="http://www.w3.org/1999/xlink" id="Layer_1" x="0px" y="0px"
    viewBox="0 0 500 500" style="enable-background:new 0 0 500 500;" xml:space="preserve">
    <g>
        <path stroke="white" fill="white"
            d="M236.4,0c4.4,2.2,9.3,3.9,13.3,6.8c6.9,5,10.6,12.2,11.3,20.8c0.6,6.6,1.4,7.3,8.2,7.3c3.6,0,7.2-0.1,10.7,0  c13.6,0.4,23.1,7.1,28.3,19.5c1.2,3,2.7,3.8,5.7,3.8c22.5-0.1,44.9-0.1,67.4,0c18,0,27,9.1,27,27c0,18.1,0.1,36.1-0.1,54.2  c0,2.6-1.4,5.9-3.3,7.5c-1.5,1.3-5.3,1.5-7,0.5c-2-1.2-3.9-4.2-4-6.5c-0.5-8.3-0.2-16.6-0.2-24.9c0-10.9,0-21.8,0-32.7  c0-7-3.1-10.1-10.1-10.4c-3.2-0.1-6.4,0-10.2,0c0,2.5,0,4.4,0,6.3c0,33.9,0,67.7,0,101.6c0,1.6,0.1,3.3-0.1,4.9  c-0.5,4-3,6.2-6.8,6.4c-3.6,0.2-6.3-1.7-7.2-5.3c-0.5-1.8-0.5-3.9-0.5-5.8c0-34,0-68,0-102c0-1.8,0-3.5,0-5.6  c-16.1,0-31.8,0-47.8,0c-0.3,2.9-0.5,5.8-1.1,8.6c-1.7,7.9-8,13.4-16,14.2c-2.1,0.2-4.2,0.2-6.3,0.2c-43,0-85.9,0-128.9,0  c-18.6,0-23.2-4.1-25.3-22.9c-15.8,0-31.6,0-48.1,0c0,1.7,0,3.5,0,5.2c0,120,0,239.9,0,359.9c0,7.2,0.3,7.5,7.4,7.5  c31.9,0,63.8-0.1,95.7,0.1c3.6,0,5.7-0.9,7.1-4.3c13.5-32.7,34-60.6,56.3-87.8c53.4-65.4,105.8-131.6,158.6-197.5  c8-10,18.3-14.5,31-11.6c11.6,2.6,19.2,10.1,22.2,21.6c2.7,10.3-0.1,19.5-6.8,27.8c-21.6,26.7-43,53.6-64.4,80.3  c-41.6,51.9-83.2,103.9-125,155.7c-4.5,5.6-10.6,10-16.3,15.3c1.4,0.2,2.5,0.4,3.7,0.4c32.6,0,65.1,0,97.7,0c6.1,0,6.5-0.4,6.5-6.8  c0-33.7,0-67.4,0-101.1c0-1.3-0.1-2.6,0-3.9c0.3-5,3.1-8,7.4-7.9c4.3,0,7.1,3.1,7.1,8.1c0.1,9.6,0,19.2,0,28.8  c0,25.4,0,50.8,0,76.2c0,14.8-6.6,21.3-21.5,21.3c-38.2,0-76.5,0.1-114.7-0.1c-4,0-7.2,1-10.1,3.7c-3.1,2.8-6.4,5.5-9.9,7.9  c-9.7,6.8-22.4,3.1-26.5-8c-1.2-3.2-2.9-3.6-5.8-3.5c-30.9,0.1-61.8,0-92.8,0c-14.7,0-21.5-6.7-21.5-21.5c0-119.8,0-239.6,0-359.4  c0-2.1,0-4.2,0-6c-0.8-0.4-1-0.7-1.3-0.7c-16.4-0.9-19,0.2-18.9,17.6c0.2,127.1,0.1,254.2,0.1,381.3c0,2.6-0.4,5.7,0.8,7.6  c1.6,2.4,4.6,4.2,7.2,5.7c1.2,0.7,3.2,0.2,4.8,0.2c105.8,0,211.6,0,317.4,0c10.5,0,13-2.4,13-12.8c0-59.7,0-119.5,0-179.2  c0-1.9-0.4-4.5,0.6-5.7c1.9-2.1,4.5-4.3,7.1-4.7c3.5-0.6,6,2.2,6.7,5.7c0.3,1.6,0.2,3.2,0.2,4.9c0,60.1,0,120.1,0,180.2  c0,16.9-9.4,26.3-26.3,26.3c-106.6,0-213.2,0-319.8,0c-17,0-26.4-9.2-26.4-26.1c0-129.9,0-259.8,0-389.6c0-16.7,9.3-26,26-26  c22.6-0.1,45.2-0.1,67.9,0c3.3,0,5-0.8,6.4-4.2c5.1-12,14.4-18.6,27.5-19.1c4.5-0.2,9.1,0,13.7-0.1c2.9,0,5.3-1.1,5.5-4.3  C183.5,14,192.7,4.5,208,0C217.5,0,226.9,0,236.4,0z M258.3,417.9c52.4-65.4,104.5-130.4,156.8-195.6c-8.2-6.5-15.9-12.7-23.8-19  c-52.4,65.4-104.5,130.4-156.8,195.6C242.7,405.5,250.4,411.6,258.3,417.9z M222.2,81.5c21.8,0,43.6,0,65.4,0  c7.8,0,8.1-0.4,8.2-8.4c0-2.4,0.1-4.9,0-7.3c-0.4-9.7-6.8-16-16.5-16.2c-3.4-0.1-6.8,0-10.2,0c-14.4,0-21-6-22.6-20.5  c-0.9-8.4-7.1-14.2-15.6-14.4c-5.9-0.1-11.7-0.1-17.6,0c-8.8,0.2-15.2,6.4-15.8,15.4c-0.9,12.3-8.2,19.3-20.5,19.5  c-4.4,0.1-8.8-0.1-13.2,0.1c-8.6,0.3-15,6.6-15.3,15.2c-0.1,3.2-0.1,6.5-0.1,9.8c0,6.3,0.6,6.9,7.1,6.9  C177.6,81.5,199.9,81.5,222.2,81.5z M424.2,210.9c7.7-9.7,15.4-18.9,22.7-28.5c4.6-6.1,3.3-14.9-2.2-19.9  c-5.6-5.1-14.8-5.8-19.9-0.2c-8.6,9.4-16.3,19.6-24.5,29.6C408.6,198.4,416.3,204.6,424.2,210.9z M226.6,411.4  c-7.6,15.3-14.9,29.9-22.2,44.6c-0.1,0.3-0.4,0.7-0.3,0.9c0.3,1.2,0.5,2.6,1.2,3.3c0.5,0.5,2.3,0.4,3-0.1c2.2-1.4,4.1-3.1,6.2-4.8  c11-8.9,21.9-17.8,33.2-26.9C240.6,422.6,234,417.3,226.6,411.4z">
        </path>
        <path fill="white"
            d="M267.5,152.6c-16.7,0-33.5,0-50.2,0c-6,0-9.4-3.7-8.3-8.7c0.9-4.4,4.3-5.9,8.4-5.9c6.8-0.1,13.7,0,20.5,0  c25.5,0,51,0,76.6,0c1.3,0,2.6,0,3.9,0c5.2,0.2,8.6,3.2,8.5,7.4c0,4.3-3.3,7.2-8.6,7.2C301.3,152.6,284.4,152.6,267.5,152.6z">
        </path>
        <path fill="white"
            d="M268,170.7c16.7,0,33.5,0,50.2,0c5.3,0,8.6,2.9,8.6,7.2c0,4.3-3.3,7.2-8.6,7.4c-1.3,0.1-2.6,0-3.9,0c-27.8,0-55.6,0-83.4,0  c-4.4,0-8.8,0.1-13.2,0c-5.8-0.1-8.9-2.7-8.9-7.4c0-4.7,3-7.2,9-7.2C234.6,170.6,251.3,170.7,268,170.7z">
        </path>
        <path fill="white"
            d="M267.5,257.4c-15.9,0-31.9,0-47.8,0c-1.9,0-4,0-5.8-0.5c-3.6-1-5.3-3.6-5.1-7.3c0.2-3.5,2.1-5.8,5.5-6.5  c1.6-0.3,3.2-0.3,4.9-0.3c32.3,0,64.7,0,97,0c1.6,0,3.3,0,4.9,0.3c3.7,0.8,6.1,3.5,5.4,6.9c-0.5,2.5-2.9,5-5.1,6.8  c-1.3,1-3.8,0.6-5.7,0.6C299.7,257.4,283.6,257.4,267.5,257.4z">
        </path>
        <path fill="white"
            d="M144.3,383.1c5.3-7.5,10.4-14.8,15.5-22.1c2.5-3.6,4.9-7.3,7.5-10.8c2.8-3.7,6.8-4.5,10.2-2.2c3.6,2.4,4.4,6.7,1.6,10.7  c-7.8,11.4-15.6,22.7-23.7,33.9c-4.9,6.8-13.3,7.8-19.7,2.5c-5.4-4.5-10.5-9.2-15.7-13.9c-3.6-3.3-4-7.6-1.2-10.8  c2.8-3.2,7.1-3.3,10.8-0.1C134.5,374.4,139.2,378.6,144.3,383.1z">
        </path>
        <path fill="white"
            d="M144.3,277.5c7.1-10.1,14.1-20.1,21-30.1c4.4-6.3,8.1-7.8,12.2-5.1c4.3,2.9,4.2,7.1-0.2,13.5c-6.9,9.8-13.7,19.7-20.7,29.5  c-6.2,8.8-14.4,9.8-22.3,2.8c-4.6-4.1-9.3-8.1-13.8-12.3c-3.9-3.5-4.4-7.9-1.6-11.1c2.9-3.2,7.3-3.3,11.2,0.1  C134.8,269,139.3,273.2,144.3,277.5z">
        </path>
        <path fill="white"
            d="M144.3,170.6c7-10,13.7-19.6,20.4-29.2c0.8-1.2,1.6-2.4,2.5-3.6c3-3.9,7.2-4.7,10.6-2.1c3.3,2.4,4,6.5,1.4,10.4  c-4.2,6.2-8.5,12.3-12.8,18.4c-3.5,5.1-7,10.2-10.6,15.2c-5.3,7.1-13.7,8.2-20.4,2.5c-5.2-4.4-10.3-9-15.3-13.6  c-3.6-3.3-3.9-7.7-1-10.8c3-3.2,7-3.3,10.8,0C134.5,161.8,139.1,166,144.3,170.6z">
        </path>
        <path fill="white"
            d="M242.1,275.3c8.1,0,16.2-0.1,24.4,0c5.3,0,8.6,2.8,8.6,7.2c0,4.3-3.3,7.4-8.5,7.4c-16.4,0.1-32.8,0.1-49.2,0  c-5.4,0-8.5-2.8-8.5-7.3c0-4.5,3-7.3,8.4-7.3C225.5,275.2,233.8,275.3,242.1,275.3z">
        </path>
    </g>
</svg>