<svg xmlns="http://www.w3.org/2000/svg" xmlns:xlink="http://www.w3.org/1999/xlink" id="Layer_1" x="0px" y="0px"
    viewBox="0 0 500 500" style="enable-background:new 0 0 500 500;" xml:space="preserve">
    <g>
        <path
            d="M959.3-34.5c4.4,2.2,9.3,3.9,13.3,6.8c6.9,5,10.6,12.2,11.3,20.8c0.6,6.6,1.4,7.3,8.2,7.3c3.6,0,7.2-0.1,10.7,0  c13.6,0.4,23.1,7.1,28.3,19.5c1.2,3,2.7,3.8,5.7,3.8c22.5-0.1,44.9-0.1,67.4,0c18,0,27,9.1,27,27c0,18.1,0.1,36.1-0.1,54.2  c0,2.6-1.4,5.9-3.3,7.5c-1.5,1.3-5.3,1.5-7,0.5c-2-1.2-3.9-4.2-4-6.5c-0.5-8.3-0.2-16.6-0.2-24.9c0-10.9,0-21.8,0-32.7  c0-7-3.1-10.1-10.1-10.4c-3.2-0.1-6.4,0-10.2,0c0,2.5,0,4.4,0,6.3c0,33.9,0,67.7,0,101.6c0,1.6,0.1,3.3-0.1,4.9  c-0.5,4-3,6.2-6.8,6.4c-3.6,0.2-6.3-1.7-7.2-5.3c-0.5-1.8-0.5-3.9-0.5-5.8c0-34,0-68,0-102c0-1.8,0-3.5,0-5.6  c-16.1,0-31.8,0-47.8,0c-0.3,2.9-0.5,5.8-1.1,8.6c-1.7,7.9-8,13.4-16,14.2c-2.1,0.2-4.2,0.2-6.3,0.2c-43,0-85.9,0-128.9,0  c-18.6,0-23.2-4.1-25.3-22.9c-15.8,0-31.6,0-48.1,0c0,1.7,0,3.5,0,5.2c0,120,0,239.9,0,359.9c0,7.2,0.3,7.5,7.4,7.5  c31.9,0,63.8-0.1,95.7,0.1c3.6,0,5.7-0.9,7.1-4.3c13.5-32.7,34-60.6,56.3-87.8c53.4-65.4,105.8-131.6,158.6-197.5  c8-10,18.3-14.5,31-11.6c11.6,2.6,19.2,10.1,22.2,21.6c2.7,10.3-0.1,19.5-6.8,27.8c-21.6,26.7-43,53.6-64.4,80.3  c-41.6,51.9-83.2,103.9-125,155.7c-4.5,5.6-10.6,10-16.3,15.3c1.4,0.2,2.5,0.4,3.7,0.4c32.6,0,65.1,0,97.7,0c6.1,0,6.5-0.4,6.5-6.8  c0-33.7,0-67.4,0-101.1c0-1.3-0.1-2.6,0-3.9c0.3-5,3.1-8,7.4-7.9c4.3,0,7.1,3.1,7.1,8.1c0.1,9.6,0,19.2,0,28.8  c0,25.4,0,50.8,0,76.2c0,14.8-6.6,21.3-21.5,21.3c-38.2,0-76.5,0.1-114.7-0.1c-4,0-7.2,1-10.1,3.7c-3.1,2.8-6.4,5.5-9.9,7.9  c-9.7,6.8-22.4,3.1-26.5-8c-1.2-3.2-2.9-3.6-5.8-3.5c-30.9,0.1-61.8,0-92.8,0c-14.7,0-21.5-6.7-21.5-21.5c0-119.8,0-239.6,0-359.4  c0-2.1,0-4.2,0-6c-0.8-0.4-1-0.7-1.3-0.7c-16.4-0.9-19,0.2-18.9,17.6c0.2,127.1,0.1,254.2,0.1,381.3c0,2.6-0.4,5.7,0.8,7.6  c1.6,2.4,4.6,4.2,7.2,5.7c1.2,0.7,3.2,0.2,4.8,0.2c105.8,0,211.6,0,317.4,0c10.5,0,13-2.4,13-12.8c0-59.7,0-119.5,0-179.2  c0-1.9-0.4-4.5,0.6-5.7c1.9-2.1,4.5-4.3,7.1-4.7c3.5-0.6,6,2.2,6.7,5.7c0.3,1.6,0.2,3.2,0.2,4.9c0,60.1,0,120.1,0,180.2  c0,16.9-9.4,26.3-26.3,26.3c-106.6,0-213.2,0-319.8,0c-17,0-26.4-9.2-26.4-26.1c0-129.9,0-259.8,0-389.6c0-16.7,9.3-26,26-26  c22.6-0.1,45.2-0.1,67.9,0c3.3,0,5-0.8,6.4-4.2C864,7.5,873.3,1,886.4,0.5c4.5-0.2,9.1,0,13.7-0.1c2.9,0,5.3-1.1,5.5-4.3  c0.9-16.5,10.1-26.1,25.4-30.5C940.4-34.5,949.9-34.5,959.3-34.5z M981.2,383.4c52.4-65.4,104.5-130.4,156.8-195.6  c-8.2-6.5-15.9-12.7-23.8-19c-52.4,65.4-104.5,130.4-156.8,195.6C965.6,371,973.4,377.1,981.2,383.4z M945.2,47  c21.8,0,43.6,0,65.4,0c7.8,0,8.1-0.4,8.2-8.4c0-2.4,0.1-4.9,0-7.3c-0.4-9.7-6.8-16-16.5-16.2c-3.4-0.1-6.8,0-10.2,0  c-14.4,0-21-6-22.6-20.5c-0.9-8.4-7.1-14.2-15.6-14.4c-5.9-0.1-11.7-0.1-17.6,0c-8.8,0.2-15.2,6.4-15.8,15.4  c-0.9,12.3-8.2,19.3-20.5,19.5c-4.4,0.1-8.8-0.1-13.2,0.1c-8.6,0.3-15,6.6-15.3,15.2c-0.1,3.2-0.1,6.5-0.1,9.8  c0,6.3,0.6,6.9,7.1,6.9C900.6,47,922.9,47,945.2,47z M1147.2,176.4c7.7-9.7,15.4-18.9,22.7-28.5c4.6-6.1,3.3-14.9-2.2-19.9  c-5.6-5.1-14.8-5.8-19.9-0.2c-8.6,9.4-16.3,19.6-24.5,29.6C1131.6,163.9,1139.3,170.1,1147.2,176.4z M949.6,376.9  c-7.6,15.3-14.9,29.9-22.2,44.6c-0.1,0.3-0.4,0.7-0.3,0.9c0.3,1.2,0.5,2.6,1.2,3.3c0.5,0.5,2.3,0.4,3-0.1c2.2-1.4,4.1-3.1,6.2-4.8  c11-8.9,21.9-17.8,33.2-26.9C963.6,388.1,956.9,382.8,949.6,376.9z">
        </path>
        <path
            d="M990.5,118.1c-16.7,0-33.5,0-50.2,0c-6,0-9.4-3.7-8.3-8.7c1-4.4,4.3-5.9,8.4-5.9c6.8-0.1,13.7,0,20.5,0c25.5,0,51,0,76.6,0  c1.3,0,2.6,0,3.9,0c5.2,0.2,8.6,3.2,8.5,7.4c0,4.3-3.3,7.2-8.6,7.2C1024.3,118.1,1007.4,118.1,990.5,118.1z">
        </path>
        <path
            d="M991,136.2c16.7,0,33.5,0,50.2,0c5.3,0,8.6,2.9,8.6,7.2c0,4.3-3.3,7.2-8.6,7.4c-1.3,0.1-2.6,0-3.9,0c-27.8,0-55.6,0-83.4,0  c-4.4,0-8.8,0.1-13.2,0c-5.8-0.1-8.9-2.7-8.9-7.4c0-4.7,3-7.2,9-7.2C957.5,136.1,974.3,136.2,991,136.2z">
        </path>
        <path
            d="M990.5,222.9c-15.9,0-31.9,0-47.8,0c-1.9,0-4,0-5.8-0.5c-3.6-1-5.3-3.6-5.1-7.3c0.2-3.5,2.1-5.8,5.5-6.5  c1.6-0.3,3.2-0.3,4.9-0.3c32.3,0,64.7,0,97,0c1.6,0,3.3,0,4.9,0.3c3.7,0.8,6.1,3.5,5.4,6.9c-0.5,2.5-2.9,5-5.1,6.8  c-1.3,1-3.8,0.6-5.7,0.6C1022.7,222.9,1006.6,222.9,990.5,222.9z">
        </path>
        <path
            d="M867.2,348.6c5.3-7.5,10.4-14.8,15.5-22.1c2.5-3.6,4.9-7.3,7.5-10.8c2.8-3.7,6.8-4.5,10.2-2.2c3.6,2.4,4.4,6.7,1.6,10.7  c-7.8,11.4-15.6,22.7-23.7,33.9c-4.9,6.8-13.3,7.8-19.7,2.5c-5.4-4.5-10.5-9.2-15.7-13.9c-3.6-3.3-4-7.6-1.2-10.8  c2.8-3.2,7.1-3.3,10.8-0.1C857.5,339.9,862.2,344.1,867.2,348.6z">
        </path>
        <path
            d="M867.3,243c7.1-10.1,14.1-20.1,21-30.1c4.4-6.3,8.1-7.8,12.2-5.1c4.3,2.9,4.2,7.1-0.2,13.5c-6.9,9.8-13.7,19.7-20.7,29.5  c-6.2,8.8-14.4,9.8-22.3,2.8c-4.6-4.1-9.3-8.1-13.8-12.3c-3.9-3.5-4.4-7.9-1.6-11.1c2.9-3.2,7.3-3.3,11.2,0.1  C857.7,234.5,862.3,238.7,867.3,243z">
        </path>
        <path
            d="M867.2,136.1c7-10,13.7-19.6,20.4-29.2c0.8-1.2,1.6-2.4,2.5-3.6c3-3.9,7.2-4.7,10.6-2.1c3.3,2.4,4,6.5,1.4,10.4  c-4.2,6.2-8.5,12.3-12.8,18.4c-3.5,5.1-7,10.2-10.6,15.2c-5.3,7.1-13.7,8.2-20.4,2.5c-5.2-4.4-10.3-9-15.3-13.6  c-3.6-3.3-3.9-7.7-1-10.8c3-3.2,7-3.3,10.8,0C857.5,127.3,862.1,131.5,867.2,136.1z">
        </path>
        <path
            d="M965.1,240.8c8.1,0,16.2-0.1,24.4,0c5.3,0,8.6,2.8,8.6,7.2c0,4.3-3.3,7.4-8.5,7.4c-16.4,0.1-32.8,0.1-49.2,0  c-5.4,0-8.5-2.8-8.5-7.3c0-4.5,3-7.3,8.4-7.3C948.5,240.7,956.8,240.8,965.1,240.8z">
        </path>
    </g>
    <g>
        <path
            d="M925.7,556.1c-3.8-5.4-6.9-10-10.1-14.4c-4.5-6.2-5.8-12.7-2.1-19.6c3.6-6.7,9.6-9.2,17-9.1c19.5,0.1,39,0.1,58.5,0  c7.7,0,13.8,2.5,17.3,9.5c3.3,6.7,2.2,13.2-2.3,19.2c-3.2,4.4-6.3,9-10.1,14.4c2.7,0,4.4,0,6.1,0c42.9,0,85.8,0.4,128.6-0.2  c19.9-0.3,31.4,14.2,31.4,31.5c-0.4,131.2-0.2,262.5-0.2,393.7c0,14.7-7.7,25.6-20.6,28.9c-3.4,0.9-7.1,1.1-10.6,1.1  c-109.1,0.1-218.3,0.1-327.4,0c-20.3,0-31.2-11.1-31.2-31.4c0-131.2,0-262.5,0-393.7c0-14.9,7.8-25.7,21.1-29  c3.3-0.8,6.8-0.8,10.1-0.8c39.3-0.1,78.6,0,117.9,0C920.8,556.1,922.6,556.1,925.7,556.1z M818.2,604.3c0,119.7,0,238.9,0,358.2  c82.1,0,163.8,0,246,0c0-12.7,0-25,0-37.3c0-7.3,2.6-9.9,10-10c10.7-0.1,21.4,0,32.2,0c1.7,0,3.4-0.2,5.1-0.3  c0-103.9,0-207.2,0-310.6c-23.5,0-46.6,0-69.7,0c-1.8,12.1-2.2,12.4-14.6,12.4c-31,0-62,0-93,0c-15.6,0-31.2,0-46.8,0  c-6.1,0-8.8-2.8-9.2-8.9c-0.1-1.1-0.1-2.2-0.2-3.6C858.1,604.3,838.3,604.3,818.2,604.3z M878,571.6c-1.9,0-3.4,0-4.8,0  c-24.2,0-48.4,0-72.6,0c-10.9,0-15.1,4.2-15.1,15c0,131.2,0,262.5,0,393.7c0,10.7,4.3,15.1,15.1,15.1c109.5,0,219,0,328.4,0  c10.8,0,15.1-4.4,15.1-15.1c0-131.2,0-262.5,0-393.7c0-10.8-4.2-15-15.1-15c-27.6,0-55.2,0-82.8,0c-1.5,0-3.1,0.2-4.6,0.3  c0,5.8,0,11,0,16.5c2.2,0,4,0,5.8,0c23.1,0,46.1,0,69.2,0c8.3,0,10.8,2.5,10.8,10.8c0,107,0,214.1,0.1,321.1  c0,4.2-1.4,7.4-4.3,10.3c-14.7,14.5-29.3,29.1-43.8,43.8c-2.8,2.9-5.9,4.1-9.9,4.1c-85.6-0.1-171.2-0.1-256.8-0.1  c-7.9,0-10.4-2.5-10.4-10.6c0-123,0-245.9,0-368.9c0-8,2.6-10.6,10.4-10.6c20,0,40,0,59.9,0c1.7,0,3.4,0,5.3,0  C878,582.6,878,577.5,878,571.6z M894,600.9c43.9,0,87.5,0,131.4,0c0-9.7,0-19.2,0-29.3c-2,0-3.7,0-5.5,0c-13.1,0-26.3,0-39.4,0  c-3.7,0-6.8-0.9-8.6-4.4c-1.8-3.5-0.6-6.5,1.5-9.5c5.7-7.9,11.3-15.9,16.8-23.9c0.9-1.3,1.5-2.9,2.4-4.7c-22.3,0-43.9,0-66.5,0  c1.4,2.2,2.2,3.6,3.1,4.9c5.2,7.4,10.4,14.9,15.7,22.2c2.5,3.4,4.7,6.8,2.4,11.1c-2.3,4.3-6.5,4.2-10.6,4.2c-11.2,0-22.4,0-33.6,0  c-3,0-6.1,0-9.3,0C894,581.6,894,591,894,600.9z M1080.1,931.1c0,6.9,0,13.3,0,17.8c5.7-5.7,12-12.1,17.8-17.8  C1092.9,931.1,1086.6,931.1,1080.1,931.1z">
        </path>
        <path
            d="M1010.1,666.6c-19.5,0-39,0-58.5,0c-6.3,0-9.8-2.7-10-7.5c-0.2-4.9,3.7-8.1,10-8.1c39,0,77.9,0,116.9,0  c7.4,0,11.6,4.7,9.4,10.5c-1.6,4.2-4.9,5.2-9,5.1C1049.4,666.5,1029.8,666.6,1010.1,666.6z">
        </path>
        <path
            d="M1010.7,806.7c19.3,0,38.6,0,58,0c6.3,0,9.8,2.7,10,7.5c0.2,4.9-3.7,8.1-10,8.1c-39,0-77.9,0-116.9,0  c-3.8,0-7.6-0.6-8.9-4.5c-0.8-2.3-0.8-6,0.6-7.6c1.7-2,5.2-3.4,7.9-3.4C971,806.6,990.9,806.7,1010.7,806.7z">
        </path>
        <path
            d="M1010.7,884.5c19.3,0,38.6-0.1,58,0.1c2.6,0,5.7,0.7,7.6,2.3c4.4,3.6,2.6,10.7-2.9,12.5c-2,0.6-4.2,0.7-6.2,0.7  c-38,0-76,0-114,0c-0.8,0-1.6,0-2.4,0c-5.6-0.3-9.2-3.6-9-8.1c0.2-4.5,3.5-7.4,9.1-7.4C970.7,884.5,990.7,884.5,1010.7,884.5z">
        </path>
        <path
            d="M1010.3,744.4c-19.8,0-39.6,0-59.4,0c-7,0-11.4-5.9-8.1-11.1c1.4-2.2,4.8-4.3,7.4-4.3c39.9-0.3,79.9-0.2,119.8-0.2  c5.2,0,8.7,3.4,8.7,7.9c-0.1,4.5-3.6,7.6-8.9,7.6C1049.9,744.5,1030.1,744.4,1010.3,744.4z">
        </path>
        <path
            d="M875.5,681.8c8.9-8.8,16.8-16.4,24.7-24.1c1.3-1.2,2.5-2.6,3.8-3.7c3.4-2.8,7.6-2.7,10.6,0.2c3,2.9,3.5,7.3,0.5,10.5  c-10.9,11.3-21.9,22.5-33.2,33.5c-3,2.9-7,2.7-10.2-0.3c-6.2-5.7-12.2-11.6-18.1-17.6c-3.3-3.4-3.2-7.8-0.2-10.9  c2.9-3,7.6-3.4,10.9-0.1C868.2,673.1,871.8,677.6,875.5,681.8z">
        </path>
        <path
            d="M875.7,759.3c9-8.8,16.8-16.5,24.7-24.2c1.2-1.1,2.2-2.4,3.5-3.4c3.3-2.8,7.7-2.7,10.6,0.1c3,2.9,3.6,7.3,0.5,10.5  c-10.9,11.3-22,22.5-33.2,33.5c-3,2.9-7,2.7-10.1-0.2c-6.2-5.7-12.2-11.6-18.1-17.6c-3.3-3.4-3.2-7.8-0.2-10.9  c3.1-3.3,7.6-3.5,11.2,0.1C868.5,751,872,755.3,875.7,759.3z">
        </path>
        <path
            d="M875.6,837.3c8.3-8.1,15.6-15.2,22.8-22.4c1.9-1.8,3.6-3.8,5.6-5.4c3.2-2.8,7.7-2.6,10.6,0.2c3,2.9,3.2,7.1,0.4,10.5  c-2,2.4-4.3,4.4-6.4,6.6c-8.1,8.2-16.2,16.4-24.3,24.5c-5.5,5.6-8.9,5.6-14.4,0.3c-5.1-4.9-10.3-9.9-15.3-14.9  c-4.2-4.1-4.5-8.5-1.1-12c3.4-3.5,7.9-3.3,11.9,0.8C868.9,829.4,872.2,833.4,875.6,837.3z">
        </path>
        <path
            d="M875.4,915c9-8.7,16.8-16.3,24.6-23.9c1.3-1.2,2.5-2.6,3.8-3.7c3.4-2.8,7.7-2.8,10.6,0c3.2,3,3.4,7.4,0.3,10.9  c-3.4,3.7-7,7.2-10.6,10.8c-6.9,6.9-13.7,13.9-20.6,20.8c-4.7,4.6-8.4,4.7-13,0.3c-5.5-5.3-11-10.6-16.4-16  c-3.9-3.9-4-8.3-0.7-11.6c3.2-3.2,7.8-3.1,11.6,0.7C868.8,907,872.1,911.2,875.4,915z">
        </path>
        <path
            d="M980,840.8c9.6,0,19.2,0,28.7,0c5.8,0,9.2,2.9,9.1,7.7c0,4.8-3.4,7.8-9.2,7.8c-19.2,0.1-38.3,0.1-57.5,0  c-5.9,0-9.7-3.4-9.5-8.1c0.2-4.6,3.7-7.4,9.5-7.4C960.8,840.8,970.4,840.8,980,840.8z">
        </path>
        <path
            d="M979.9,918.6c9.6,0,19.1,0,28.7,0c5.9,0,9.2,2.9,9.2,7.7c0,4.8-3.4,7.8-9.2,7.9c-19.1,0.1-38.3,0.1-57.4,0  c-5.9,0-9.7-3.4-9.5-8.1c0.2-4.7,3.6-7.4,9.5-7.5C960.8,918.6,970.3,918.6,979.9,918.6z">
        </path>
        <path
            d="M979.4,700.7c-9.6,0-19.1,0-28.7,0c-5.4,0-8.9-3-9-7.5c-0.1-4.6,3.5-8,9.1-8.1c19.3-0.1,38.6-0.1,57.9,0  c5.8,0,9.1,3.1,9.1,7.9c0,4.8-3.4,7.6-9.2,7.7C998.9,700.7,989.1,700.7,979.4,700.7z">
        </path>
        <path
            d="M979.8,778.6c-9.6,0-19.2,0-28.7,0c-5.7,0-9.3-3-9.4-7.6c-0.1-4.8,3.6-7.9,9.6-7.9c19,0,38,0,57,0c6.1,0,9.6,3,9.5,7.9  c-0.1,4.9-3.5,7.7-9.7,7.7C998.7,778.6,989.2,778.6,979.8,778.6z">
        </path>
    </g>
    <g>
        <path fill="white"
            d="M947.9-526.6c5.6,2.9,11.9,5,16.6,9c4,3.3,6.8,8.5,8.9,13.4c1.4,3.3,3,3.9,6.1,3.9c26.9-0.1,53.8,0,80.7,0  c13.1,0,26.3,0,39.4,0c5.6,0,8.7,2.5,8.8,6.9c0.1,4.6-3.1,7.2-8.9,7.2c-7.9,0-15.9,0-24,0c-0.5,7-0.4,13.1,2.9,19.4  c21.4,39.9,42.3,80.1,63.5,120.1c1.1,2,3.1,3.8,5,4.9c5.1,2.8,7.4,8.2,4.5,13.5c-5.5,10.1-11.2,20.2-17.4,30  c-1.4,2.2-4.9,4-7.7,4.4c-5.5,0.7-11.2,0.3-16.9,0.2c-4.4-0.1-7.2-3-7.2-7c0-3.8,2.7-6.5,6.8-7c0.6-0.1,1.3-0.2,1.9,0  c9.9,2.2,15.8-2.2,19.1-11.3c1.2-3.1,3.3-5.9,5.2-9.3c-45,0-89.3,0-134.6,0c4,6.9,7.6,13.3,11.6,19.6c0.6,0.9,2.8,0.9,4.3,0.9  c18.9,0.1,37.8,0,56.8,0.1c1.8,0,3.8,0,5.5,0.6c3.4,1.2,5.4,4.1,4.2,7.3c-0.9,2.4-3.6,4.1-5.6,5.9c-0.5,0.5-1.8,0.2-2.8,0.2  c-21.1,0-42.2,0-63.3,0c-4.7,0-8-1.9-10.3-6c-5.2-9.1-10.5-18.1-15.7-27.2c-3.8-6.7-1.9-11.9,5-15.3c1.4-0.7,2.7-2.1,3.4-3.4  c22-41.6,44-83.1,65.5-124.9c2.2-4.2,1.7-9.9,2.5-15.3c-2.6-0.1-4.1-0.3-5.6-0.3c-25.6,0-51.3,0-76.9-0.1c-3.3,0-4.8,0.8-5.9,4.2  c-3.3,9.9-10.2,16.8-20.1,20.1c-3.4,1.2-4.2,2.8-4.1,6c0.2,6.2,0.1,12.4,0.1,19c3,0.1,5.5,0.2,8,0.4c5.8,0.5,10.1,4.3,10.5,10.1  c0.5,6.8,0.4,13.8,0.1,20.6c-0.1,4-2.7,6.2-6.8,6.4c-3.9,0.1-6.8-2.4-7-6.7c-0.2-5.3-0.1-10.6-0.1-16.2c-8,0-15.4,0-23.3,0  c0,54.1,0,108,0,162.2c7.7,0,15.1,0,23.2,0c0-2,0-3.8,0-5.7c0-34.4,0-68.8,0-103.2c0-1.9,0-3.8,0.2-5.6c0.5-3.6,2.8-5.6,6.4-5.7  c3.8-0.2,6.3,1.7,7.1,5.4c0.4,1.8,0.3,3.7,0.3,5.6c0,34.4,0,68.8,0,103.2c0,1.9,0,3.7,0,5.9c9.6,1.2,17.1,5.3,21.9,13.7  c4.8,8.3,2.4,17.4,3.4,26.9c3.7,0,7.4,0,11.1,0c14.8,0.1,24.2,9.6,24.4,24.4c0.1,5.6,0,11.2,0,17.5c2.4,0,4.4,0,6.4,0  c43.6,0,87.3,0,130.9,0c7.2,0,10.6,2.2,10.6,7c0,4.7-3.5,7.1-10.6,7.1c-3.4,0-6.8,0-10.5,0c0,28,0,55.5,0,83.7  c4.3,0,8.6-0.1,12.9,0c5.1,0.1,8.2,2.9,8.2,7.1c-0.1,4-3.1,6.7-7.9,7c-1.6,0.1-3.1,0-4.7,0c-96.3,0-192.7,0-289,0c-2,0-4,0-6.8,0  c0,3.4,0.1,6.5,0,9.5c-0.3,9-8.2,13.2-15.8,8.3c-4.7-3.1-9.3-6.3-13.8-9.6c-2.1-1.6-3.6-1.5-5.8,0.1c-4.4,3.3-9,6.2-13.5,9.4  c-3.5,2.4-7.1,3.3-11,1.2c-3.8-2.1-5.4-5.4-5.3-9.7c0.1-2.8,0-5.6,0-9c-2.4,0-4.3,0-6.3,0c-13-0.1-26,0.6-38.9-0.6  c-29.8-2.8-51.6-28.5-50.2-58.1c1.4-29.5,25.8-52.9,55.7-53.1c28.9-0.2,57.9,0,86.8,0c1.5,0,3.1,0,5.4,0c0-5.5,0.3-10.6-0.1-15.6  c-1.2-16.7,11.7-27.6,26.4-26.3c2.9,0.3,5.9,0,9.4,0c0-3.8,0.2-7.2,0-10.6c-1.2-15.1,7.3-27.5,25-30.1c0-1.9,0-3.9,0-5.8  c0-51.5,0-102.9,0-154.4c0-2.3,0-4.7,0.4-7c0.9-4.8,4.7-8.4,9.6-8.9c2.6-0.3,5.3-0.3,8.6-0.5c0-7.6,0.1-15-0.1-22.4  c0-0.7-1.6-1.7-2.7-2.1c-11-3.7-18.2-11.1-22-22c-0.4-1.1-2-2.6-3-2.6c-27.7-0.1-55.4,0-83,0.1c-0.1,0-0.2,0.1-0.7,0.4  c-0.4,6-0.6,11.8,2.6,17.8c21.5,40.2,42.6,80.7,63.9,121c1.1,2,3,3.8,5,4.9c5.2,2.9,7.6,8.2,4.7,13.4  c-5.5,10.1-11.2,20.2-17.5,29.9c-1.6,2.4-5.6,4.5-8.5,4.5c-38.3,0.3-76.6,0.2-115,0.2c-4.1,0-7.2-1.8-9.3-5.3  c-5.5-9.5-11-18.9-16.4-28.4c-3.4-6.1-1.3-11.5,5.1-14.7c1.4-0.7,2.8-1.9,3.5-3.3c22-41.7,44.1-83.4,65.8-125.3  c2.2-4.2,1.5-9.9,2.2-15.5c-8.1,0-15.1,0-22.1,0c-1.6,0-3.1,0.1-4.7,0c-4.4-0.3-7.1-3.2-7.1-7.2c0.1-3.8,2.8-6.5,6.9-6.8  c1.4-0.1,2.8,0,4.2,0c39.3,0,78.5,0,117.8,0c3.1,0,4.8-0.5,6-4c3.6-10.8,11.4-17.7,22.2-21.1c1.2-0.4,2.3-0.8,3.4-1.2  C940.4-526.6,944.1-526.6,947.9-526.6z M1141.1-132.5c-2.4,0-4.3,0-6.1,0c-47.4,0-94.8,0-142.2,0c-1.6,0-3.2,0.2-4.7-0.2  c-3.8-0.9-6-3.3-5.8-7.4c0.2-3.8,2.5-6,6.2-6.4c1.5-0.2,3.1-0.1,4.7-0.1c47.4,0,94.8,0,142.2,0c1.8,0,3.6,0,5.6,0  c0-6,0-11.4,0-17.2c-2.3,0-4.3,0-6.3,0c-61.3,0-122.6,0-183.9,0c-2.2,0-4.4,0-6.5-0.4c-3.5-0.7-5.3-3.3-5.2-6.8  c0.1-3.5,1.9-5.9,5.5-6.6c1.7-0.3,3.4-0.3,5.1-0.3c19.7,0,39.4,0,59.1,0c1.8,0,3.6,0,5.9,0c0-5.8,0-10.9,0-16.1  c0-8.8-2.9-11.7-11.9-11.7c-40.3,0-80.7,0-121,0c-1.4,0-2.8-0.1-4.2,0.1c-4.1,0.7-7.3,3-7.5,7.2c-0.4,6.6-0.1,13.3-0.1,20.5  c2.3,0,4.1,0,6,0c12.2,0,24.4-0.1,36.6,0.1c4.7,0,7.4,2.6,7.5,6.6c0.2,4.2-2.6,6.9-7.4,7.3c-1.6,0.1-3.1,0.1-4.7,0.1  c-35.5,0-71,0-106.5,0c-10.4,0-18.5,5.5-19,14.9c-0.8,17.9-0.6,35.9,0,53.9c0.3,8.7,11.1,17,20.4,14c0-17.1,0-34.2,0-51.4  c-1.6-0.1-2.9-0.1-4-0.4c-3.8-1-6-3.4-5.7-7.4c0.3-3.7,2.6-5.9,6.3-6.4c1.2-0.2,2.5-0.1,3.7-0.1c40.5,0,81,0,121.5,0  c1.6,0,3.4-0.4,4.6,0.3c2,1.2,4.5,2.9,5,4.9c0.6,2-0.3,5.2-1.8,6.6c-1.5,1.5-4.5,2.1-6.8,2.2c-17.4,0.2-34.7,0.1-52.1,0.1  c-1.6,0-3.3,0.1-4.9,0.2c0,17.6,0,34.7,0,51.8c91,0,181.6,0,272.3,0c0-5.8,0-11.2,0-17.1c-2.1,0-4,0-5.8,0c-47.4,0-94.8,0-142.2,0  c-1.6,0-3.1,0.1-4.7-0.1c-3.6-0.5-5.6-2.6-6-6.1c-0.3-3.5,1.2-6.2,4.6-7.2c1.9-0.6,4-0.6,6-0.6c47.5,0,95.1,0,142.6,0  c1.8,0,3.6,0,5.4,0C1141.1-118.9,1141.1-125.4,1141.1-132.5z M772.3-163.4c-19.6-2.5-36.4,5.1-45,20.8c-8.6,15.7-7.5,31.3,3,45.8  c9.4,13,27.8,19.7,42.1,16C766-97.8,765.8-143.3,772.3-163.4z M1060.9-440.9c-0.3-0.1-0.5-0.2-0.8-0.3  c-17.2,32.6-34.3,65.3-51.7,98.2c18.1,0,35.2,0,52.5,0C1060.9-375.9,1060.9-408.4,1060.9-440.9z M824.5-441.1  c-0.3,0.1-0.5,0.1-0.8,0.2c0,32.7,0,65.3,0,97.9c17.5,0,34.6,0,52.4,0C858.8-376.1,841.6-408.6,824.5-441.1z M809.1-440.5  c-0.3-0.1-0.7-0.2-1-0.3c-17.1,32.5-34.2,65-51.5,97.8c17.9,0,35.1,0,52.5,0C809.1-375.8,809.1-408.2,809.1-440.5z M1075.5-342.9  c17.5,0,34.6,0,52.4,0c-17.4-33-34.5-65.5-51.6-97.9c-0.3,0.1-0.6,0.2-0.8,0.3C1075.5-408.2,1075.5-375.8,1075.5-342.9z   M883.7-328.3c-45.2,0-89.6,0-134.6,0c3.9,6.7,7.3,12.9,11.1,19c0.6,1,2.6,1.4,4,1.4c34.8,0.1,69.7,0.1,104.5,0  c1.3,0,3.2-0.3,3.7-1.1C876.2-315.2,879.8-321.5,883.7-328.3z M817.6-64.3c3.7-2.6,6.9-4.7,10.1-6.9c8.1-5.6,8.2-5.6,16.5,0.1  c3.1,2.2,6.3,4.3,10,6.8c0-23.1,0-45.4,0-67.8c-12.3,0-24.4,0-36.5,0C817.6-109.6,817.6-87.4,817.6-64.3z M905.6-220  c24.8,0,48.9,0,73.2,0c0.1-1.2,0.2-2.1,0.2-3c0-3.9,0.1-7.8-0.1-11.7c-0.3-6.3-4.8-11-11.1-11.1c-17-0.2-34.1-0.2-51.1,0  c-5.9,0.1-10.6,4.5-11,10.2C905.4-230.6,905.6-225.5,905.6-220z M961.4-493.4c-0.1-10.7-8.8-19.3-19.5-19.1  c-10.5,0.2-18.9,8.8-18.8,19.3c0.1,10.7,8.8,19.3,19.5,19.1C953.1-474.2,961.5-482.9,961.4-493.4z">
        </path>
    </g>
    <g>
        <path fil="white"
            d="M605.5-758.6c0,71.3,0,142.5,0,213.8c-2.7,6.3-6.6,11.7-14,12.4c-12.7,1.1-23.7,0.6-32.2-16c-4.2-8.2-8.8-16.3-13.4-24.8  c-17.6,7.3-34.8,14.5-52,21.7c8.6,24.8-11.4,49.4-39,42.5c-0.2,0.2-0.5,0.5-0.6,0.7c-5.2,16.5-13.1,22.7-30.4,24.4  c-1.3,0.1-2.9,2-3.4,3.4c-2.6,8.8-7.9,15.2-16.7,17.8c-4.6,1.4-9.6,1.2-15,1.8c-2.5,9.6-9.8,15.5-19.4,19.1c-4.2,0-8.3,0-12.5,0  c-9.9-6.6-19.9-13.1-29.9-19.7c-14.1,15.7-35.4,10.9-43.4-6.7c-17.7,2.5-25.1-1.2-35.5-17.7c-17.8,3.4-26.5-0.5-36.7-16.5  c-10.2,3.1-19.7,1.5-27.5-6.2c-7.8-7.7-9-17.3-6.2-27.7c-4.9-2.2-9.4-4.4-14.2-6.6c-1.8,3.6-3.6,6.6-5,9.9  c-5.3,12.1-14.4,17.7-27.7,17.2c-12.3-0.5-18.6-6.4-18.6-18.8c0-72.4,0-144.7,0-217.1c0-14.9,10.7-22.2,24.6-16.7  c25.3,10.1,50.6,20.2,75.8,30.3c2,0.8,4,1.6,6.1,2.4c0-16.5,0-32.3,0-48.6c-1.6,0.9-2.8,1.6-4.1,2.3c-15.2,8.3-33.3-0.1-36.4-17.1  c-2-11,2.6-19.3,11.6-25.5c50.3-34.4,100.6-68.8,150.9-103.2c13.9-9.5,22-9.5,36,0c36.5,25,73.1,50,109.6,75  c14.2,9.7,28.4,19.3,42.4,29.1c11.3,8,14,22.4,6.7,33.6c-7.3,11.2-21.5,14.4-33.5,7.5c-1-0.6-2.2-1.1-3.4-1.7c0,15.5,0,30.7,0,46.2  c2-0.7,3.7-1.1,5.3-1.8c24.9-9.4,49.7-18.8,74.6-28.2C592.2-772.8,598.6-770.6,605.5-758.6z M485.1-685.4  c-3.1-5.7-5.9-10.8-8.5-15.9c-4.5-9-3.1-18.3,3.3-26c1.3-1.5,2.2-3.9,2.2-5.9c0.2-19.6,0-39.2,0.2-58.7c0-2.9-0.8-4.6-3.3-6.3  c-39-26.6-77.9-53.2-116.7-79.9c-2.5-1.8-4.2-1.7-6.7,0c-38.9,26.7-77.8,53.3-116.7,79.9c-2.4,1.6-3.3,3.4-3.2,6.3  c0.1,20.4,0,40.8,0.2,61.1c0,2,0.9,4.4,2.1,6c6.5,8.4,7.6,17.4,3.4,27.1c-1.2,2.8-2.6,5.4-4.1,8.6c13.3,5.2,25.8,10.8,40.2,7.9  c9.9-2,19.9-3.5,29.8-5.2c0.8-0.1,2-0.1,2.2-0.6c2.6-5.7,8.3-9.9,8.4-16.9c0-15.9,0-31.8,0-47.7c0-12.4,6.3-18.8,18.6-18.8  c14.9,0,29.9,0,44.8,0c12.7,0,18.9,6.3,18.9,18.9c0,12.7-0.1,25.4,0.1,38c0,1.9,1,4.5,2.4,5.6c12.1,9.2,24.4,18.2,36.7,27.2  c5.4,3.9,11.7,6.1,18.2,4.3C466.8-678.7,475.7-682.2,485.1-685.4z M335.2-477.8c7.5,5.8,14.7,11.6,22.3,17c4.4,3.2,10,2,13.4-2  c3.5-4.1,3.4-9.2-0.5-13.5c-2.1-2.4-4.5-4.6-6.8-6.9c-5.5-5.5-6.3-10.2-2.6-14.1c3.8-3.9,8.7-3.2,14.1,2.3c4.3,4.3,8.6,8.7,12.9,13  c4.7,4.6,10.1,4.8,14.1,0.8c3.8-3.8,3.5-9.1-0.9-13.6c-5.6-5.7-11.3-11.4-17-17c-4.8-4.8-9.6-9.5-14.3-14.3  c-4-4.2-4.2-8.8-0.6-12.3c3.5-3.4,8.2-3.1,12.4,0.8c0.8,0.8,1.6,1.6,2.4,2.4c9.6,9.6,19.2,19.4,29,28.8c2.4,2.3,5.7,4.3,9,5  c6.2,1.4,12-2.1,14.6-7.7c2.6-5.7,1.3-11.8-3.9-16.5c-12.2-10.9-24.6-21.6-36.9-32.4c-4.7-4.2-5.4-8.7-2-12.5  c3.3-3.8,8.3-3.8,12.8,0.1c5.5,4.7,10.9,9.5,16.3,14.2c10.5,9.2,20.9,18.5,31.5,27.6c5.6,4.8,12,5.3,17.8,1.8  c5.8-3.4,8.7-9,6.8-15.4c-1-3.5-3.4-7-6.1-9.4c-24.8-22.3-49.8-44.4-74.8-66.6c-9.7-8.6-19.4-17.2-29.2-25.9  c-2.4,2.7-4.6,5-6.8,7.4c-8.7,9.7-17.3,19.4-26.1,29c-10.2,11-27.1,12.8-39,4.3c-11.3-8.1-15.1-22.6-9.4-36.1  c4.1-9.7,8.5-19.2,12.8-28.8c-0.1-0.5-0.2-1-0.3-1.4c-24.3,9-47.8,7.1-70.5-4.8c-19.8,39.4-39.2,78.1-58.8,117  c4.8,2.2,9.1,4.2,13.4,6.2c8-24,32.4-27.8,47.3-12.5c8.4-7.8,18.3-10.4,29.3-6.8c11.2,3.6,17.3,12.1,19.6,23.3  c18.6-0.6,27.3,5.4,33.9,23.2c0.5,0,1.2,0.1,1.8,0.1c20-0.2,31.5,17.4,23.5,35.7C338.4-484.9,336.8-481.5,335.2-477.8z   M493.2-670.5c-7.7,2.8-15.1,5.4-22.4,8.3c-15.5,6-29.7,3.9-43.1-6c-15.6-11.6-31.3-23-47-34.3c-13.4-9.7-29.7-8.8-41.1,3.1  c-6.5,6.9-12.4,14.8-16.8,23.2c-7.3,13.9-13.2,28.5-19.6,42.8c-3.1,6.9-1.3,13.7,4,17.1c5.6,3.5,12.3,2.4,17.4-3.1  c5.3-5.8,10.5-11.7,15.8-17.5c5.3-5.9,10.6-11.9,16.2-18.1c-1.5-1.3-2.7-2.1-3.6-3.2c-2.7-3.2-2.6-7.5,0.1-10.6  c2.7-3.1,6.8-3.7,10.4-1.5c1.2,0.8,2.3,1.8,3.4,2.7c37.8,33.1,75.5,66.2,113.2,99.4c2.5,2.2,4.5,2.7,7.6,1.3  c7.8-3.4,15.7-6.5,23.6-9.7c8.9-3.6,17.7-7.2,26.8-10.9C523-615.3,508.2-642.7,493.2-670.5z M129.2-753.9c0,74.3,0,147.8,0,221.4  c9.6,0.9,10.9,0.2,15-8c27-53.8,54-107.7,81.1-161.5c4.1-8.1,2.6-11.8-5.8-15.2c-14.5-5.9-29.1-11.9-43.6-17.8  C160.4-741.3,145-747.5,129.2-753.9z M588.9-549c0-68.5,0-136.6,0-205.2c-1.7,0.6-3.3,1-4.7,1.5c-28.5,11-57.1,22-85.6,32.9  c-8.7,3.3-9.7,6.2-5.2,14.5c26.7,49.5,53.5,98.9,80.2,148.4C577.9-549,579.5-548.1,588.9-549z M359.1-899.1c2.6,1.4,5.1,2.5,7.3,4  c30.1,20.5,60.1,41,90.1,61.6c17.5,11.9,34.9,23.9,52.4,35.8c5.4,3.7,10.2,3.2,13-1.2c2.8-4.3,1.3-8.8-4.1-12.5  c-50.7-34.7-101.3-69.4-152-104c-5.9-4.1-7.8-4-13.9,0.2c-45.9,31.4-91.8,62.8-137.8,94.2c-5.4,3.7-10.9,7.3-16.2,11.2  c-3.8,2.8-4.4,7.5-1.9,11.1c2.5,3.6,6.9,4.6,11.1,2.3c1.7-0.9,3.2-2.1,4.8-3.2c46.7-32,93.4-63.9,140.1-95.8  C354.1-896.8,356.5-897.8,359.1-899.1z M383.4-753.6c-16.3,0-32.4,0-48.8,0c0,11.9,0,23.7,0,36.2c15.8-10,32-11.1,49.1-3.5  c0-10.6,0-20.3,0-30.1C383.7-751.8,383.5-752.6,383.4-753.6z M264.6-541.6c0.1-6.8-3.8-12.2-8.9-13.6c-5.9-1.6-11.7,0.7-14.6,6.4  c-4.7,9.5-9.1,19.1-13.5,28.7c-3.4,7.5-1,15.1,5.5,18c6.4,2.8,13.5-0.2,17-7.4c4.3-8.9,8.5-17.9,12.7-26.9  C263.7-538.4,264.2-540.6,264.6-541.6z M298.2-517.8c0-6.6-3.8-11.4-9.4-12.9c-5.4-1.4-10.9,0.9-13.7,6.3  c-3.7,7.2-7.2,14.6-10.5,22.1c-3.1,7-0.2,14.1,6.6,17.3c5.7,2.7,12.6-0.2,15.9-6.9c3.4-7,6.6-14.2,9.8-21.4  C297.7-515,298-516.9,298.2-517.8z M202.9-516.8c2.4-1.6,5.8-2.7,7-4.9c4.1-7.1,7.6-14.4,10.8-21.9c2-4.7-0.8-10-5.3-12  c-4.5-2-9.8-0.6-12.1,3.8c-3.7,7.1-7.2,14.3-10.2,21.7C190.8-523.9,195.7-517.6,202.9-516.8z M326.3-498.9  c-0.5-4.3-2.4-7.2-6.2-8.1c-4.3-1.1-8.1,0.1-10.1,4.3c-3.4,7.1-6.8,14.2-9.9,21.4c-2.1,4.8,0.1,9.7,4.9,12  c3.7,1.8,8.4-0.2,10.6-4.9c3.3-6.9,6.5-13.9,9.6-20.9C325.7-496.5,326-497.9,326.3-498.9z">
        </path>
        <path fill="white"
            d="M326.2-820.1c0.1-18,15.1-32.8,33-32.5c18.3,0.2,32.8,15.1,32.5,33.5c-0.2,17.8-14.9,32.3-32.8,32.3  C340.8-786.9,326.1-801.8,326.2-820.1z M342.6-819.8c0,9.1,7.4,16.5,16.5,16.4c8.9-0.1,16.2-7.2,16.3-16.2  c0.1-9.1-7.2-16.6-16.3-16.7C350-836.3,342.6-828.9,342.6-819.8z">
        </path>
    </g>
    <g>
        <path fill="white"
            d="M0,234.2c1.3-9.2,2.2-18.4,3.9-27.4C16.5,137.6,52.2,83.1,109.9,43c3.6-2.5,4.8-5,4.7-9.1c-0.3-11.2-0.1-22.4-0.1-33.8  c90.6,0,180.6,0,271.2,0c0,11.6,0.1,23-0.1,34.3c-0.1,3.8,1,6.1,4.3,8.3c58.8,40.8,95.6,96.2,106.8,167c12.5,79.1-9,149-62.3,209  c-0.6,0.7-1.4,1.3-2.2,2.1c-3.4-3.2-6.7-6.3-10.4-9.7c4-4.8,8.1-9.4,11.9-14.2c13.6-16.8,24.4-35.2,33.1-55c1.1-2.4,0.8-4-1-6  c-11.1-12.3-22.1-24.8-33-37.3c-1.8-2-3.2-4.5-4.2-7c-5-12.9-9.9-25.8-14.7-38.7c-1-2.8-2.5-4.1-5.4-4.7  c-7.2-1.4-14.3-3.2-21.5-4.5c-1.4-0.2-3.4,0.8-4.5,1.8c-2.4,2.1-4.1,5.4-6.8,6.7c-4.1,2-4.7,4.8-4.7,8.9c0.2,19.5,0.1,39.1,0,58.6  c0,2.5-0.6,5.2-1.7,7.4c-10.1,20.8-20.3,41.4-30.4,62.2c-1.4,2.8-2.8,4.1-6.2,4c-14.3-0.2-28.6-0.1-43.4-0.1  c-1.3-11.4-2.7-22.4-3.9-33.5c-1.1-9.7-2.3-19.4-3.3-29.1c-0.3-3.3-1.6-5.6-4.3-7.7c-10.4-8-20.6-16.4-31-24.5  c-2.8-2.2-4.1-4.4-4-8.1c0.3-11.1,0.1-22.1,0.1-34.1c-2.3,0-4.3,0-6.3,0c-31.7,0-63.5-0.1-95.2,0c-8.5,0-16.2-1.3-22.5-9.3  c-5.3,5.6-10.5,10.7-15.2,16.2c-1,1.2-0.8,3.7-0.6,5.5c1.6,12.7,3.2,25.5,5.1,38.2c0.4,2.5-0.1,3.8-2.4,4.9  c-8.9,4.3-17.8,8.8-26.5,13.4c-2.7,1.5-4,0.6-5.6-1.5c-8-10.8-16-21.8-24.4-32.3c-3.5-4.4-7.7-8.3-12.1-11.7  c-6.6-5.2-13.7-9.7-20.9-14.7c0.9,60.6,37.1,145.7,122,192c82.3,44.9,193.2,38.6,273.2-35.3c3.2,3.3,6.4,6.7,10.4,10.8  c-9.2,7.3-17.8,14.8-27.2,21.4c-37.6,26.6-79.5,41.8-125.5,45.2c-1.4,0.1-2.8,0.5-4.3,0.8c-10.1,0-20.2,0-30.3,0  c-1.1-0.3-2.2-0.6-3.3-0.8c-11.4-1.7-22.9-2.8-34.2-5C100,474.7,19.7,391.4,3.9,293.9c-1.5-9.4-2.6-19-3.9-28.4  C0,255.1,0,244.7,0,234.2z M371,14.8c-80.8,0-161.1,0-242,0c0,26.8,0,53.4,0,79.8c-5.1,0-9.6,0-14.5,0c0-6.4,0-12.4,0-18.4  c0-5.9,0-11.8,0-18.9c-6,4.7-11,8.3-15.7,12.3c-51.6,44.4-79.4,100.6-84,168.5c-0.4,5.6,0.5,9.7,5.9,12.3c2.2,1,3.9,2.9,6,4.1  c19.8,11.4,35.5,27.1,47.9,46.2c5,7.7,5.3,7.2,13.5,3.5c3.5-1.6,4.3-3.6,3.7-7.2c-1.6-11.1-2.9-22.3-4.6-33.3  c-0.5-3.4,0-5.8,2.6-8.2c7.2-6.8,14.1-14,21.3-20.9c2.5-2.3,3.4-4.7,3.3-8.1c-0.1-36.9-0.1-73.9-0.1-110.8c0-1.9,0-3.7,0-5.8  c5.2,0,9.7,0,14.6,0c0,2.2,0,4.1,0,6.1c0,37.9,0,75.8,0,113.8c0,9.9,1.9,11.8,11.6,11.8c72.9,0,145.8,0,218.8,0  c9.6,0,11.5-2,11.5-11.4c0-70,0-140,0-210C371,18.5,371,16.8,371,14.8z M473.8,323.1c16.9-54.6,15.5-107.6-5-159.9  c-16.9-43.1-44.8-77.9-83-105.6c0,57.6,0,114,0,170.7c11.1,2.4,22,4.9,32.9,7.1c3.2,0.6,5,2,6.1,5.2c3.3,9.4,7.5,18.4,10.4,27.9  c4.2,13.7,11.3,25.3,21.4,35.4C462.5,309.6,467.6,316.1,473.8,323.1z M302.2,378.7c7.6,0,14.5-0.2,21.5,0.1  c3.1,0.1,4.5-1.1,5.8-3.8c8.3-17.3,16.9-34.4,25.2-51.7c0.8-1.7,1.5-3.7,1.5-5.5c0.1-19.4,0.1-38.7,0-58.1c0-0.9-0.2-1.9-0.4-3  c-32.8,0-65.4,0-98.5,0c0,10.2-0.1,20.1,0.1,30c0,1.4,1.7,3,2.9,4.1c7.8,6.4,15.3,13.4,23.8,18.7c9.4,5.9,12.2,13.8,12.9,24.2  C298.1,348.4,300.4,363.2,302.2,378.7z">
        </path>
        <path fill="white"
            d="M90.1,371.3c0-6.2-2-13.4,0.6-18.1c2.5-4.5,10-6.1,14.8-9.6c9.5-7,19.7-9.6,31.5-8.6c9,0.8,18.2,0,27.3,0.2  c2.1,0.1,4.5,0.8,6.1,2.1c17.9,14,35.7,28.2,53.4,42.5c1.8,1.4,3.1,4.1,3.5,6.5c2.1,12,3.8,24.1,5.8,36.1c0.5,3,0,5-2.7,7  c-7.8,5.8-15.2,12.2-23.1,18c-1.8,1.3-4.7,2.1-6.9,1.7c-15.6-3.1-31.1-6.5-46.6-10.1c-2.6-0.6-5.2-1.9-7.2-3.6  c-17.8-14.2-35.4-28.6-53.2-42.7c-2.9-2.3-4.1-4.6-3.8-8.2c0.3-4.4,0.1-8.8,0.1-13.2C89.8,371.3,90,371.3,90.1,371.3z M104.3,370.3  c0,3.5-0.4,5.9,0.1,8c0.5,2.3,1.3,5.1,3,6.5c15.3,12.6,30.7,25.1,46.3,37.4c1.9,1.5,4.5,2.6,6.9,3.2c7.6,1.9,15.5,2.5,22.8,5.2  c12.7,4.8,22.8,2,31.5-7.8c0.1-0.1,0.3-0.2,0.4-0.3c0.7-1.9,2.2-3.9,2-5.8c-0.9-7.6-2-15.1-3.5-22.6c-0.5-2.4-1.9-5.2-3.8-6.8  c-8.7-7.3-17.7-14.3-26.7-21.3c-6.8-5.3-12.8-12.7-20.5-15.4c-7.9-2.7-17.3-0.5-26.1-1.1c-8.8-0.6-16.2,1.9-23.8,6.3  C106.3,359.8,102.3,363.6,104.3,370.3z">
        </path>
        <path fill="white"
            d="M302.7,92.8c-8-1.2-15.8-1.6-23.2-3.6c-7.3-2-14.2-5.5-21.8-8.5c0,38,0,75.5,0,113.3c16.7,0,33.4,0,50.5,0  c0,5,0,9.6,0,14.5c-38.8,0-77.5,0-116.6,0c0-4.6,0-9.1,0-14.2c16.8,0,33.6,0,50.7,0c0-38.1,0-75.6,0-113.5  c-14.8,5.2-28.3,14.2-45.9,10c1.5,2.9,2.2,4.4,3.1,5.9c6.7,11.7,13.3,23.5,20.1,35.1c1.4,2.5,1.8,4.4,0.3,7.1  c-5.2,9.9-10.2,20-15,30.1c-1.2,2.6-2.7,3.5-5.6,3.5c-10.2-0.2-20.5-0.2-30.8,0c-2.9,0.1-4.3-1.1-5.5-3.6  c-4.9-10.1-9.9-20.1-15-30.1c-1.3-2.5-1.2-4.3,0.2-6.7c6.9-11.8,13.6-23.7,20.4-35.5c0.8-1.4,1.4-2.8,2.5-4.8c-5.7,0-10.8,0-16.1,0  c0-5,0-9.5,0-14.5c1.8-0.1,3.5-0.2,5.2-0.2c15.1,0,30.3,0.2,45.4-0.1c4.3-0.1,8.6-1.1,12.7-2.5c6.8-2.3,13.2-5.4,20-7.8  c3.3-1.2,4.7-2.7,4.4-6.3c-0.3-4-0.1-8.1-0.1-12.3c5,0,9.5,0,14.7,0c0,4.4,0.1,8.8-0.1,13.1c-0.1,2.7,0.8,4.1,3.3,5.1  c8.4,3.2,16.6,6.7,24.9,9.8c2.1,0.8,4.4,1,6.6,1c17.4,0.1,34.8,0,52.6,0c0,4.9,0,9.5,0,14.6c-5.1,0-10.2,0-16,0  c1,2.1,1.7,3.5,2.4,4.9c6.8,11.9,13.5,23.7,20.4,35.5c1.3,2.3,1.7,4.1,0.4,6.7c-5.3,10.1-10.1,20.4-15.4,30.4  c-0.8,1.6-3.3,3.1-5.1,3.1c-10.4,0.3-20.8,0.3-31.2,0c-1.7,0-4-1.4-4.8-2.8c-5.5-10.3-10.7-20.8-15.7-31.4  c-0.7-1.5-0.4-4.1,0.4-5.6C287.6,119.1,295.2,105.9,302.7,92.8z M200.7,128.2c-5.7-10-11-19.3-16.6-29c-5.6,9.9-10.9,19.2-16.5,29  C179,128.2,189.3,128.2,200.7,128.2z M299.5,128c11.3,0,21.8,0,32.9,0c-5.6-9.8-10.9-19.1-16.5-28.8C310.3,109,305,118.3,299.5,128  z M167.2,143.3c5.6,14.4,5.6,14.4,20,14.4c1.5,0,3,0.2,4.4-0.1c1.3-0.3,2.9-0.9,3.4-1.9c2.2-3.9,4.1-8,6.2-12.4  C189.6,143.3,178.6,143.3,167.2,143.3z M332.7,143.5c-11.3,0-22.4,0-33.9,0c2.1,4.3,3.9,8.1,5.9,11.8c0.5,1,1.7,2.1,2.7,2.3  C322.2,160.8,327,158.1,332.7,143.5z">
        </path>
        <path fill="white"
            d="M424.3,147c0-4.7,0-9.1,0-14c4.6,0,9.2,0,14.1,0c0,4.5,0,9.1,0,14C433.7,147,429.1,147,424.3,147z"></path>
        <path fill="white"
            d="M453.1,162.4c0,4.7,0,9.2,0,13.9c-4.8,0-9.3,0-14.2,0c0-4.6,0-9.1,0-13.9C443.5,162.4,448,162.4,453.1,162.4z">
        </path>
    </g>
</svg>